<svg xmlns="http://www.w3.org/2000/svg" xmlns:xlink="http://www.w3.org/1999/xlink" contentStyleType="text/css" height="577px" preserveAspectRatio="none" style="width:1485px;height:577px;background:#FFFFFF;" version="1.1" viewBox="0 0 1485 577" width="1485px" zoomAndPan="magnify"><defs/><g><!--cluster State1--><g id="cluster_State1"><path d="M132,128.62 L1166,128.62 A12.5,12.5 0 0 1 1178.5,141.12 L1178.5,150.1083 L119.5,150.1083 L119.5,141.12 A12.5,12.5 0 0 1 132,128.62 " fill="#F1F1F1" style="stroke:#F1F1F1;stroke-width:1.0;"/><rect fill="none" height="321.6" rx="12.5" ry="12.5" style="stroke:#181818;stroke-width:0.5;" width="1059" x="119.5" y="128.62"/><line style="stroke:#181818;stroke-width:0.5;" x1="119.5" x2="1178.5" y1="150.1083" y2="150.1083"/><text fill="#000000" font-family="sans-serif" font-size="14" lengthAdjust="spacing" textLength="43" x="627.5" y="146.1552">State1</text></g><g id="elem_c1"><polygon fill="#F1F1F1" points="567.5,190.62,579.5,202.62,567.5,214.62,555.5,202.62,567.5,190.62" style="stroke:#181818;stroke-width:0.5;"/></g><g id="State1.AckParCR"><rect fill="#F1F1F1" height="121.2852" rx="12.5" ry="12.5" style="stroke:#181818;stroke-width:0.5;" width="168" x="143.5" y="304.93"/><line style="stroke:#181818;stroke-width:0.5;" x1="143.5" x2="311.5" y1="331.4183" y2="331.4183"/><text fill="#000000" font-family="sans-serif" font-size="14" lengthAdjust="spacing" textLength="66" x="194.5" y="323.4652">AckParCR</text><text fill="#000000" font-family="sans-serif" font-size="12" font-weight="bold" lengthAdjust="spacing" textLength="35" x="148.5" y="348.0198">entry:</text><text fill="#000000" font-family="sans-serif" font-size="12" lengthAdjust="spacing" textLength="59" x="187.5" y="348.0198">sayOneOf(</text><text fill="#000000" font-family="sans-serif" font-size="12" lengthAdjust="spacing" textLength="148" x="148.5" y="362.1527">Ack(Par.) word/word part</text><text fill="#000000" font-family="sans-serif" font-size="12" lengthAdjust="spacing" textLength="82" x="148.5" y="376.2855">CR(Rep. Req.)</text><text fill="#000000" font-family="sans-serif" font-size="12" lengthAdjust="spacing" textLength="85" x="148.5" y="390.4183">CR(Conf. Req.)</text><text fill="#000000" font-family="sans-serif" font-size="12" lengthAdjust="spacing" textLength="82" x="148.5" y="404.5511">CR(Gen. Req.)</text><text fill="#000000" font-family="sans-serif" font-size="12" lengthAdjust="spacing" textLength="4" x="148.5" y="418.6839">)</text></g><g id="State1.SpellingOffer"><rect fill="#F1F1F1" height="50.6211" rx="12.5" ry="12.5" style="stroke:#181818;stroke-width:0.5;" width="110" x="346.5" y="340.27"/><line style="stroke:#181818;stroke-width:0.5;" x1="346.5" x2="456.5" y1="366.7583" y2="366.7583"/><text fill="#000000" font-family="sans-serif" font-size="14" lengthAdjust="spacing" textLength="90" x="356.5" y="358.8052">SpellingOffer</text><text fill="#000000" font-family="sans-serif" font-size="12" font-weight="bold" lengthAdjust="spacing" textLength="35" x="351.5" y="383.3598">entry:</text><text fill="#000000" font-family="sans-serif" font-size="12" lengthAdjust="spacing" textLength="30" x="390.5" y="383.3598">listen</text></g><g id="State1.SpellingInstallment"><rect fill="#F1F1F1" height="50.6211" rx="12.5" ry="12.5" style="stroke:#181818;stroke-width:0.5;" width="151" x="492" y="340.27"/><line style="stroke:#181818;stroke-width:0.5;" x1="492" x2="643" y1="366.7583" y2="366.7583"/><text fill="#000000" font-family="sans-serif" font-size="14" lengthAdjust="spacing" textLength="131" x="502" y="358.8052">SpellingInstallment</text><text fill="#000000" font-family="sans-serif" font-size="12" font-weight="bold" lengthAdjust="spacing" textLength="35" x="497" y="383.3598">entry:</text><text fill="#000000" font-family="sans-serif" font-size="12" lengthAdjust="spacing" textLength="30" x="536" y="383.3598">listen</text></g><g id="State1.AckVerb"><rect fill="#F1F1F1" height="93.0195" rx="12.5" ry="12.5" style="stroke:#181818;stroke-width:0.5;" width="177" x="678" y="319.07"/><line style="stroke:#181818;stroke-width:0.5;" x1="678" x2="855" y1="345.5583" y2="345.5583"/><text fill="#000000" font-family="sans-serif" font-size="14" lengthAdjust="spacing" textLength="57" x="738" y="337.6052">AckVerb</text><text fill="#000000" font-family="sans-serif" font-size="12" font-weight="bold" lengthAdjust="spacing" textLength="35" x="683" y="362.1598">entry:</text><text fill="#000000" font-family="sans-serif" font-size="12" lengthAdjust="spacing" textLength="59" x="722" y="362.1598">sayOneOf(</text><text fill="#000000" font-family="sans-serif" font-size="12" lengthAdjust="spacing" textLength="157" x="683" y="376.2927">Ack(Verb.) word/word part</text><text fill="#000000" font-family="sans-serif" font-size="12" lengthAdjust="spacing" textLength="59" x="683" y="390.4255">Ack(Cont.)</text><text fill="#000000" font-family="sans-serif" font-size="12" lengthAdjust="spacing" textLength="4" x="683" y="404.5583">)</text></g><g id="State1.CRSpReq"><rect fill="#F1F1F1" height="78.8867" rx="12.5" ry="12.5" style="stroke:#181818;stroke-width:0.5;" width="93" x="890" y="326.13"/><line style="stroke:#181818;stroke-width:0.5;" x1="890" x2="983" y1="352.6183" y2="352.6183"/><text fill="#000000" font-family="sans-serif" font-size="14" lengthAdjust="spacing" textLength="62" x="905.5" y="344.6652">CRSpReq</text><text fill="#000000" font-family="sans-serif" font-size="12" font-weight="bold" lengthAdjust="spacing" textLength="35" x="895" y="369.2198">entry:</text><text fill="#000000" font-family="sans-serif" font-size="12" lengthAdjust="spacing" textLength="23" x="934" y="369.2198">say(</text><text fill="#000000" font-family="sans-serif" font-size="12" lengthAdjust="spacing" textLength="73" x="895" y="383.3527">CR(Sp. Req.)</text><text fill="#000000" font-family="sans-serif" font-size="12" lengthAdjust="spacing" textLength="4" x="895" y="397.4855">)</text></g><g id="State4"><rect fill="#F1F1F1" height="50" rx="12.5" ry="12.5" style="stroke:#181818;stroke-width:0.5;" width="63" x="1203" y="340.58"/><line style="stroke:#181818;stroke-width:0.5;" x1="1203" x2="1266" y1="367.0683" y2="367.0683"/><text fill="#000000" font-family="sans-serif" font-size="14" lengthAdjust="spacing" textLength="43" x="1213" y="359.1152">State4</text></g><g id="State7"><rect fill="#F1F1F1" height="50" rx="12.5" ry="12.5" style="stroke:#181818;stroke-width:0.5;" width="63" x="1346" y="340.58"/><line style="stroke:#181818;stroke-width:0.5;" x1="1346" x2="1409" y1="367.0683" y2="367.0683"/><text fill="#000000" font-family="sans-serif" font-size="14" lengthAdjust="spacing" textLength="43" x="1356" y="359.1152">State7</text></g><g id="State2"><rect fill="#F1F1F1" height="50.6211" rx="12.5" ry="12.5" style="stroke:#181818;stroke-width:0.5;" width="89" x="7" y="177.31"/><line style="stroke:#181818;stroke-width:0.5;" x1="7" x2="96" y1="203.7983" y2="203.7983"/><text fill="#000000" font-family="sans-serif" font-size="14" lengthAdjust="spacing" textLength="43" x="30" y="195.8452">State2</text><text fill="#000000" font-family="sans-serif" font-size="12" font-weight="bold" lengthAdjust="spacing" textLength="35" x="12" y="220.3998">entry:</text><text fill="#000000" font-family="sans-serif" font-size="12" lengthAdjust="spacing" textLength="30" x="51" y="220.3998">listen</text></g><g id="State3"><rect fill="#F1F1F1" height="50" rx="12.5" ry="12.5" style="stroke:#181818;stroke-width:0.5;" width="63" x="735" y="521.22"/><line style="stroke:#181818;stroke-width:0.5;" x1="735" x2="798" y1="547.7083" y2="547.7083"/><text fill="#000000" font-family="sans-serif" font-size="14" lengthAdjust="spacing" textLength="43" x="745" y="539.7552">State3</text></g><g id="State5"><rect fill="#F1F1F1" height="50" rx="12.5" ry="12.5" style="stroke:#181818;stroke-width:0.5;" width="63" x="905" y="521.22"/><line style="stroke:#181818;stroke-width:0.5;" x1="905" x2="968" y1="547.7083" y2="547.7083"/><text fill="#000000" font-family="sans-serif" font-size="14" lengthAdjust="spacing" textLength="43" x="915" y="539.7552">State5</text></g><g id="Start"><rect fill="#F1F1F1" height="50.6211" rx="12.5" ry="12.5" style="stroke:#181818;stroke-width:0.5;" width="89" x="523" y="7"/><line style="stroke:#181818;stroke-width:0.5;" x1="523" x2="612" y1="33.4883" y2="33.4883"/><text fill="#000000" font-family="sans-serif" font-size="14" lengthAdjust="spacing" textLength="32" x="551.5" y="25.5352">Start</text><text fill="#000000" font-family="sans-serif" font-size="12" font-weight="bold" lengthAdjust="spacing" textLength="35" x="528" y="50.0898">entry:</text><text fill="#000000" font-family="sans-serif" font-size="12" lengthAdjust="spacing" textLength="30" x="567" y="50.0898">listen</text></g><ellipse cx="477.5" cy="32.31" fill="#222222" rx="10" ry="10" style="stroke:#222222;stroke-width:1.0;"/><!--link State1 to State4--><g id="link_State1_State4"><path d="M1178.8831,324.7915 C1179.1621,324.9911 1179.4405,325.1902 1179.7182,325.3889 C1180.2736,325.7862 1180.8265,326.1818 1181.3767,326.5754 C1182.4772,327.3626 1183.567,328.1422 1184.6455,328.9138 C1186.8026,330.4569 1188.9145,331.9678 1190.9761,333.4426 C1195.0994,336.3924 1194.1415,335.707 1197.8202,338.3389 " fill="none" id="State1-to-State4" style="stroke:#181818;stroke-width:1.0;"/><polygon fill="#181818" points="1202.7,341.83,1197.7078,333.3402,1198.6335,338.9207,1193.0529,339.8465,1202.7,341.83" style="stroke:#181818;stroke-width:1.0;"/><text fill="#000000" font-family="sans-serif" font-size="13" lengthAdjust="spacing" textLength="146" x="1109.53" y="271.4984">RECOGNISED (Sp. offer)</text></g><!--link State1 to State7--><g id="link_State1_State7"><path d="M1179.5468,226.2581 C1180.3845,226.4772 1181.2223,226.6983 1182.0601,226.9217 C1183.7357,227.3683 1185.4114,227.8236 1187.0866,228.2875 C1213.8888,235.7106 1240.55,245.3675 1264.5,257.93 C1303.2,278.24 1334.3388,310.9324 1354.7988,335.5924 " fill="none" id="State1-to-State7" style="stroke:#181818;stroke-width:1.0;"/><polygon fill="#181818" points="1358.63,340.21,1355.9617,330.7295,1355.4374,336.362,1349.8049,335.8377,1358.63,340.21" style="stroke:#181818;stroke-width:1.0;"/><text fill="#000000" font-family="sans-serif" font-size="13" lengthAdjust="spacing" textLength="187" x="1290.52" y="271.4984">RECOGNISED (Sp. installment)</text></g><!--link State1 to State1--><g id="link_State1_State1"><path d="M1185.5,201.18 C1198.1,186.69 1221.12,187.17 1221.12,202.62 C1221.12,218.08 1202.0371,223.0876 1189.4371,208.5976 " fill="none" id="State1-to-State1" style="stroke:#181818;stroke-width:1.0;"/><polygon fill="#181818" points="1185.5,204.07,1188.3872,213.4862,1188.7809,207.843,1194.424,208.2367,1185.5,204.07" style="stroke:#181818;stroke-width:1.0;"/><text fill="#000000" font-family="sans-serif" font-size="13" lengthAdjust="spacing" textLength="129" x="1227.12" y="207.6884">RECOGNISED (Name)</text></g><!--link c1 to AckParCR--><g id="link_c1_AckParCR"><path d="M559.06,206.73 C527.85,218.33 416.22,260.69 328.5,304.93 C323.05,307.69 322.7546,307.7502 317.1846,310.7702 " fill="none" id="c1-to-AckParCR" style="stroke:#181818;stroke-width:1.0;"/><polygon fill="#181818" points="311.91,313.63,321.7284,312.8566,316.3055,311.2468,317.9153,305.8239,311.91,313.63" style="stroke:#181818;stroke-width:1.0;"/></g><!--link c1 to SpellingOffer--><g id="link_c1_SpellingOffer"><path d="M561.59,209.35 C540.28,230.02 470.8375,297.3432 431.3075,335.6732 " fill="none" id="c1-to-SpellingOffer" style="stroke:#181818;stroke-width:1.0;"/><polygon fill="#181818" points="427,339.85,436.2458,336.4565,430.5896,336.3694,430.6768,330.7132,427,339.85" style="stroke:#181818;stroke-width:1.0;"/></g><!--link c1 to SpellingInstallment--><g id="link_c1_SpellingInstallment"><path d="M567.5,215.2 C567.5,241.22 567.5,298.81 567.5,334.05 " fill="none" id="c1-to-SpellingInstallment" style="stroke:#181818;stroke-width:1.0;"/><polygon fill="#181818" points="567.5,340.05,571.5,331.05,567.5,335.05,563.5,331.05,567.5,340.05" style="stroke:#181818;stroke-width:1.0;"/></g><!--link c1 to AckVerb--><g id="link_c1_AckVerb"><path d="M571.39,210.9 C574.32,216 578.65,222.79 583.5,227.93 C616,262.42 653.0807,291.0882 688.6707,315.4782 " fill="none" id="c1-to-AckVerb" style="stroke:#181818;stroke-width:1.0;"/><polygon fill="#181818" points="693.62,318.87,688.4572,310.4828,689.4956,316.0435,683.9348,317.0819,693.62,318.87" style="stroke:#181818;stroke-width:1.0;"/></g><!--link c1 to CRSpReq--><g id="link_c1_CRSpReq"><path d="M570.84,211.53 C573.51,216.92 577.76,223.8 583.5,227.93 C691.33,305.66 756.19,240.59 872.5,304.93 C882.6,310.52 887.8754,314.0416 896.5854,321.8616 " fill="none" id="c1-to-CRSpReq" style="stroke:#181818;stroke-width:1.0;"/><polygon fill="#181818" points="901.05,325.87,897.0254,316.881,897.3295,322.5297,891.6808,322.8338,901.05,325.87" style="stroke:#181818;stroke-width:1.0;"/></g><!--link AckParCR to State2--><g id="link_AckParCR_State2"><path d="M161.94,304.62 C133.09,278.24 105.2181,252.7487 83.0381,232.4687 " fill="none" id="AckParCR-to-State2" style="stroke:#181818;stroke-width:1.0;"/><polygon fill="#181818" points="78.61,228.42,82.5529,237.4451,82.3,231.7939,87.9512,231.5411,78.61,228.42" style="stroke:#181818;stroke-width:1.0;"/><text fill="#000000" font-family="sans-serif" font-size="13" lengthAdjust="spacing" textLength="111" x="129.96" y="271.4984">SPEAK_COMPLETE</text></g><!--link AckVerb to State3--><g id="link_AckVerb_State3"><path d="M766.5,412.58 C766.5,447.11 766.5,487.03 766.5,514.79 " fill="none" id="AckVerb-to-State3" style="stroke:#181818;stroke-width:1.0;"/><polygon fill="#181818" points="766.5,520.79,770.5,511.79,766.5,515.79,762.5,511.79,766.5,520.79" style="stroke:#181818;stroke-width:1.0;"/><text fill="#000000" font-family="sans-serif" font-size="13" lengthAdjust="spacing" textLength="111" x="767.5" y="487.7884">SPEAK_COMPLETE</text></g><!--link CRSpReq to State5--><g id="link_CRSpReq_State5"><path d="M936.5,405.34 C936.5,440.44 936.5,485.06 936.5,514.8 " fill="none" id="CRSpReq-to-State5" style="stroke:#181818;stroke-width:1.0;"/><polygon fill="#181818" points="936.5,520.8,940.5,511.8,936.5,515.8,932.5,511.8,936.5,520.8" style="stroke:#181818;stroke-width:1.0;"/><text fill="#000000" font-family="sans-serif" font-size="13" lengthAdjust="spacing" textLength="111" x="937.5" y="487.7884">SPEAK_COMPLETE</text></g><!--link State2 to State1--><g id="link_State2_State1"><path d="M65.49,177.2 C78.5,156.44 100,128.6 127.5,116.16 C171.64,96.19 963.33,83.93 999.5,116.16 C1002.715,119.025 1005.3381,122.3238 1007.4613,125.9242 C1007.7267,126.3742 1007.9843,126.829 1008.2342,127.2882 C1008.3592,127.5178 1008.4823,127.7485 1008.6035,127.9803 C1008.6641,128.0962 1005.9885,122.8724 1006.0481,122.9888 " fill="none" id="State2-to-State1" style="stroke:#181818;stroke-width:1.0;"/><polygon fill="#181818" points="1008.7838,128.3289,1008.2403,118.495,1006.5041,123.8788,1001.1203,122.1426,1008.7838,128.3289" style="stroke:#181818;stroke-width:1.0;"/><text fill="#000000" font-family="sans-serif" font-size="13" lengthAdjust="spacing" textLength="340" x="141.5" y="101.1884">RECOGNISED (C | Ack(Cont.) | Name (word/word part))</text></g><!--link Start to c1--><g id="link_Start_c1"><path d="M567.5,57.79 C567.5,94.62 567.5,156.88 567.5,184.04 " fill="none" id="Start-to-c1" style="stroke:#181818;stroke-width:1.0;"/><polygon fill="#181818" points="567.5,190.04,571.5,181.04,567.5,185.04,563.5,181.04,567.5,190.04" style="stroke:#181818;stroke-width:1.0;"/><text fill="#000000" font-family="sans-serif" font-size="13" lengthAdjust="spacing" textLength="129" x="568.5" y="101.1884">RECOGNISED (Name)</text></g><!--link *start* to Start--><g id="link_*start*_Start"><path d="M487.7,32.31 C499.33,32.31 504.97,32.31 516.61,32.31 " fill="none" id="*start*-to-Start" style="stroke:#181818;stroke-width:1.0;"/><polygon fill="#181818" points="522.61,32.31,513.61,28.31,517.61,32.31,513.61,36.31,522.61,32.31" style="stroke:#181818;stroke-width:1.0;"/></g><!--SRC=[VLDTIyCm57tlhxYFJM6JxWDXZC68PGnr7Otu8YArfbhiqfe6PAZ_tQIPIz9rlfIRSqxISsvoYKW53M4mM01HvMG6IOJZrMPDeYlmIJs4AiyfHnxfA2zFbGLhH5gMEyh4gJvqzPjqHv47u3MAr9BH3890RkRxMH10MJI2CfiVsujfP_F4wm0XV4b40ra8ytdsLXKPNIoKCDFEbjdxDkKuCGYfQLaMx3LMgK_XjOded79F-RC1S4BgX7ueGt3yXsc5p4csqVBw2SUtsvleBd9qJXEQT1yp6kU-8v2LByiXWi-Alroe3zGf5uu89tv2vQr88qFKPN35yZFKYh8-1dbwgPAQAEDk52FwBuVcLGnLdSbXHDAj-BEZqTRDeSt6pRJ7pK7KTUFRb4nDh4uTSQHlq7aJVM_KqbWFf4_ve-TY10D-PZ0mV5kPvK9D2lXkWn1gZQd3k6ZpPxtprV9zFXw2Hz06v7w0Nm00]--></g></svg>